<svg xmlns="http://www.w3.org/2000/svg" viewBox="-14 -14 128 128" width="720" role="img" aria-label="Map of Civilization Dawn (Lothal Era)">
<style>
  .bg{fill:#E7EAE6}.grid{stroke:#CBD1CB;stroke-width:.3}.edge{stroke:#AFB8B1;stroke-width:.6}
  .dot{fill:#2C5C8F}.dot-place{fill:#7E6A2E}
  .lbl{fill:#17201F;font:3.2px Archivo,sans-serif}
  .cap{fill:#7D8A86;font:2.6px 'JetBrains Mono',monospace}
  .sea{fill:#93B4CB} .land{fill:#C8CBA8}
  polygon{stroke:#7E8A76;stroke-width:.25}
  .rgn{fill:#39402F;font:2.7px Archivo,sans-serif;font-style:italic;opacity:.9}
  .course{fill:none;stroke:#5B87A8;stroke-width:.8;stroke-linejoin:round;stroke-linecap:round}
  .course-lbl{fill:#2F5470;font:2.2px Archivo,sans-serif;font-style:italic}
  .t-desert{fill:#D9C89A}.t-plains{fill:#A8BE84}.t-forest{fill:#7EA46E}.t-wetland{fill:#8FAD9E}.t-hills{fill:#B3B183}.t-mountains{fill:#A9A79C}.t-river{fill:#8FB3C4}.t-coast{fill:#D8CBA0}.t-sea{fill:#7FA6C0}.t-lava_field{fill:#C4735A}
  @media(prefers-color-scheme:dark){
   .bg{fill:#121817}.grid{stroke:#28322F}.edge{stroke:#3E4C4E}
   .dot{fill:#74A8DA}.dot-place{fill:#CBAE6A}.lbl{fill:#E2E7E3}.cap{fill:#78857F}
   .sea{fill:#18242E} .land{fill:#2A3026}
   polygon{stroke:#3A4436} .rgn{fill:#9FB09A}
   .course{stroke:#6E9CBD} .course-lbl{fill:#9DBDD4}
   .t-desert{fill:#3B3524}.t-plains{fill:#2A3520}.t-forest{fill:#20301E}.t-wetland{fill:#1E2E2A}.t-hills{fill:#302E20}.t-mountains{fill:#2C2B26}.t-river{fill:#1D2E36}.t-coast{fill:#393322}.t-sea{fill:#1B2C36}.t-lava_field{fill:#3A1C15}
  }
</style>
<rect class="bg" x="-14" y="-14" width="128" height="128"/>
<rect class="sea" x="0" y="0" width="100" height="100"/>
<polygon class="land" points="23,31 30,29 40,27 50,26 58,27 65,30 69,34 70,40 67,46 72,51 71,56 65,58 61,63 57,67 52,72 48,75 45,71 41,66 37,60 33,54 31,48 30,45 25,44 19,43 16,41 20,38 23,35"/>
<polygon class="land" points="0,0 100,0 100,10 88,12 75,16 62,14 52,16 40,18 28,22 20,24 12,20 0,22"/>
<polygon class="land" points="85,70 92,69 95,73 92,77 86,76"/>
<polygon class="land" points="63,69 67,70 69,74 66,77 63,75"/>
<polygon class="t-plains" points="33,34 38,29 46,27 53,30 51,37 44,39 37,39"/>
<text class="rgn" x="43.1" y="33.6" text-anchor="middle">Aravali Ranges</text>
<polygon class="t-lava_field" points="77,12 90,9 100,11 100,24 90,27 80,22 76,17"/>
<text class="rgn" x="87.6" y="17.4" text-anchor="middle">Ganges Lava Sea</text>
<polygon class="t-desert" points="0,13 11,14 13,19 10,23 2,22 0,19"/>
<text class="rgn" x="6.0" y="18.3" text-anchor="middle">Gedrosian Desert</text>
<polygon class="t-hills" points="44,39 53,36 62,38 64,45 58,49 49,49 45,45"/>
<text class="rgn" x="53.6" y="43.0" text-anchor="middle">Narmada Plateau</text>
<polygon class="t-wetland" points="16,41 22,38 30,42 32,48 30,52 24,51 18,46"/>
<text class="rgn" x="24.6" y="45.4" text-anchor="middle">Saraswati Delta</text>
<polygon class="t-sea" points="15,78 40,74 60,76 85,74 100,78 100,100 15,100"/>
<text class="rgn" x="59.3" y="82.9" text-anchor="middle">Shattered Sea &amp; Mappa Mundi</text>
<polyline class="course" points="52,6 45,9 38,12 32,15 25,17 18,19 17,22"/>
<text class="course-lbl" x="32.0" y="13.6" text-anchor="middle">The Saraswati</text>
<line class="grid" x1="0" y1="0" x2="0" y2="100"/>
<line class="grid" x1="0" y1="0" x2="100" y2="0"/>
<line class="grid" x1="20" y1="0" x2="20" y2="100"/>
<line class="grid" x1="0" y1="20" x2="100" y2="20"/>
<line class="grid" x1="40" y1="0" x2="40" y2="100"/>
<line class="grid" x1="0" y1="40" x2="100" y2="40"/>
<line class="grid" x1="60" y1="0" x2="60" y2="100"/>
<line class="grid" x1="0" y1="60" x2="100" y2="60"/>
<line class="grid" x1="80" y1="0" x2="80" y2="100"/>
<line class="grid" x1="0" y1="80" x2="100" y2="80"/>
<line class="grid" x1="100" y1="0" x2="100" y2="100"/>
<line class="grid" x1="0" y1="100" x2="100" y2="100"/>
<circle class="dot-place" cx="46" cy="52" r="1.5"/>
<text class="lbl" x="46" y="49" text-anchor="middle">The Aranta</text>
<circle class="dot-place" cx="45" cy="62" r="1.5"/>
<text class="lbl" x="45" y="59" text-anchor="middle">The Deccan</text>
<circle class="dot-place" cx="29" cy="15" r="1.5"/>
<text class="lbl" x="29" y="12" text-anchor="middle">Harappa</text>
<circle class="dot-place" cx="63" cy="8" r="1.5"/>
<text class="lbl" x="63" y="5" text-anchor="middle">Hyrcania</text>
<circle class="dot-place" cx="20" cy="24" r="1.5"/>
<text class="lbl" x="20" y="21" text-anchor="middle">Makkan Coast</text>
<circle class="dot-place" cx="13" cy="19" r="1.5"/>
<text class="lbl" x="15" y="16" text-anchor="start">Mohenjodaro</text>
<circle class="dot-place" cx="47" cy="67" r="1.5"/>
<text class="lbl" x="47" y="64" text-anchor="middle">Nilgiri</text>
<circle class="dot-place" cx="30" cy="19" r="1.5"/>
<text class="lbl" x="30" y="16" text-anchor="middle">The Northern Frontier</text>
<circle class="dot-place" cx="44" cy="15" r="1.5"/>
<text class="lbl" x="44" y="12" text-anchor="middle">Sihauli</text>
<circle class="dot-place" cx="50" cy="95" r="1.5"/>
<text class="lbl" x="50" y="92" text-anchor="middle">The Southern Ice</text>
<circle class="dot-place" cx="89" cy="73" r="1.5"/>
<text class="lbl" x="87" y="70" text-anchor="end">Tamralinga</text>
<circle class="dot-place" cx="66" cy="72" r="1.5"/>
<text class="lbl" x="66" y="69" text-anchor="middle">Tamraparni</text>
<circle class="dot-place" cx="72" cy="52" r="1.5"/>
<text class="lbl" x="72" y="49" text-anchor="middle">Vengi</text>
<text class="cap" x="0" y="108">north is up · 0-100 grid</text>
</svg>
